<svg width="46" height="46" viewBox="0 0 46 46" fill="none" xmlns="http://www.w3.org/2000/svg">
<path d="M40.1356 0.442383C41.4515 0.442383 42.7135 0.965126 43.644 1.89562C44.5745 2.82611 45.0972 4.08812 45.0972 5.40403V40.1356C45.0972 41.4515 44.5745 42.7135 43.644 43.644C42.7135 44.5745 41.4515 45.0972 40.1356 45.0972H5.40403C4.08812 45.0972 2.82611 44.5745 1.89562 43.644C0.965126 42.7135 0.442383 41.4515 0.442383 40.1356V5.40403C0.442383 4.08812 0.965126 2.82611 1.89562 1.89562C2.82611 0.965126 4.08812 0.442383 5.40403 0.442383H40.1356ZM38.8952 38.8952V25.7468C38.8952 23.6019 38.0431 21.5448 36.5264 20.0281C35.0097 18.5114 32.9526 17.6593 30.8077 17.6593C28.699 17.6593 26.243 18.9493 25.0522 20.8844V18.1307H18.1307V38.8952H25.0522V26.6647C25.0522 24.7545 26.5903 23.1915 28.5005 23.1915C29.4216 23.1915 30.3051 23.5575 30.9564 24.2088C31.6077 24.8602 31.9737 25.7436 31.9737 26.6647V38.8952H38.8952ZM10.068 14.2358C11.1733 14.2358 12.2334 13.7967 13.0151 13.0151C13.7967 12.2334 14.2358 11.1733 14.2358 10.068C14.2358 7.76082 12.3751 5.87539 10.068 5.87539C8.95604 5.87539 7.88964 6.31711 7.10337 7.10337C6.31711 7.88964 5.87539 8.95604 5.87539 10.068C5.87539 12.3751 7.76082 14.2358 10.068 14.2358ZM13.5163 38.8952V18.1307H6.64444V38.8952H13.5163Z" fill="#164E90"/>
</svg>
